<svg width="257" height="258" viewBox="0 0 257 258" fill="none" xmlns="http://www.w3.org/2000/svg">
<path d="M24.7 217.019L22.4379 208.098C18.4271 206.398 14.3237 204.926 10.1471 203.688L9.86153 207.834L8.70358 203.267C3.52384 201.786 0 201.134 0 201.134C0 201.134 4.75869 219.234 14.743 233.072L26.3756 235.115L17.3385 236.418C18.5944 237.93 19.9441 239.36 21.3796 240.702C35.9023 254.182 52.078 260.367 57.5088 254.516C62.9396 248.665 55.5691 232.994 41.0465 219.515C36.5443 215.336 30.8887 211.983 25.2273 209.343L24.7 217.019Z" fill="#F2F2F2"/>
<path d="M46.2128 207.329L48.888 198.523C46.3335 194.994 43.5819 191.613 40.6465 188.395L38.2589 191.796L39.6286 187.287C35.9592 183.344 33.2795 180.965 33.2795 180.965C33.2795 180.965 27.9984 198.919 29.3915 215.925L38.2934 223.688L29.8822 220.132C30.1765 222.075 30.5927 223.997 31.1284 225.888C36.5927 244.935 47.2428 258.59 54.916 256.389C62.5893 254.188 64.3803 236.963 58.9161 217.916C57.2223 212.012 54.114 206.218 50.6322 201.032L46.2128 207.329Z" fill="#F2F2F2"/>
<path d="M179.227 61.0295H177.816V22.3738C177.816 19.4356 177.237 16.5262 176.113 13.8117C174.989 11.0972 173.341 8.63073 171.263 6.55313C169.185 4.47553 166.719 2.82749 164.004 1.7031C161.29 0.578713 158.381 0 155.442 0H73.5422C67.6083 0 61.9174 2.35723 57.7215 6.55313C53.5256 10.749 51.1684 16.4399 51.1684 22.3738V234.446C51.1684 237.384 51.7471 240.294 52.8715 243.008C53.9958 245.723 55.6439 248.189 57.7215 250.267C59.7991 252.344 62.2656 253.992 64.9801 255.117C67.6946 256.241 70.604 256.82 73.5422 256.82H155.442C161.376 256.82 167.067 254.462 171.263 250.266C175.459 246.071 177.816 240.38 177.816 234.446V88.5455H179.227L179.227 61.0295Z" fill="#E6E6E6"/>
<path d="M156.345 5.81871H145.655C146.147 7.0241 146.335 8.33192 146.202 9.62692C146.069 10.9219 145.62 12.1644 144.893 13.2448C144.167 14.3253 143.186 15.2105 142.037 15.8226C140.889 16.4347 139.607 16.7548 138.305 16.7547H91.3852C90.0834 16.7547 88.8017 16.4345 87.6528 15.8223C86.504 15.2102 85.5233 14.325 84.7972 13.2445C84.0711 12.1641 83.6218 10.9217 83.489 9.62675C83.3561 8.3318 83.5438 7.02405 84.0354 5.81871H74.0504C69.6191 5.81871 65.3692 7.57907 62.2357 10.7125C59.1023 13.846 57.3419 18.0959 57.3419 22.5272V234.291C57.3419 238.723 59.1023 242.973 62.2357 246.106C65.3692 249.24 69.6191 251 74.0504 251H156.345C160.777 251 165.026 249.24 168.16 246.106C171.293 242.973 173.054 238.723 173.054 234.291V22.5269C173.054 18.0956 171.293 13.8458 168.16 10.7124C165.026 7.57902 160.776 5.81871 156.345 5.81871Z" fill="white"/>
<path d="M115.431 107.606C120.088 107.606 123.862 103.831 123.862 99.1745C123.862 94.5181 115.431 85.5 115.431 77C115.431 87 107 94.5181 107 99.1745C107 103.831 110.775 107.606 115.431 107.606Z" fill="#F25A45"/>
<path d="M99 89C101.209 89 103 87.15 103 84.8678C103 82.5857 99 78.1659 99 74C99 78.9011 95 82.5857 95 84.8678C95 87.15 96.7909 89 99 89Z" fill="#E6E6E6"/>
<path d="M132 104C134.209 104 136 102.15 136 99.8678C136 97.5857 132 93.1659 132 89C132 93.9011 128 97.5857 128 99.8678C128 102.15 129.791 104 132 104Z" fill="#E6E6E6"/>
<path d="M139.903 116.668H90.7645C90.2967 116.667 89.8482 116.481 89.5174 116.15C89.1866 115.819 89.0005 115.371 89 114.903V65.7645C89.0005 65.2967 89.1866 64.8482 89.5174 64.5174C89.8482 64.1866 90.2967 64.0005 90.7645 64H139.903C140.371 64.0005 140.819 64.1866 141.15 64.5174C141.481 64.8482 141.667 65.2967 141.668 65.7645V114.903C141.667 115.371 141.481 115.819 141.15 116.15C140.819 116.481 140.371 116.667 139.903 116.668ZM90.7645 64.7062C90.4838 64.7065 90.2147 64.8181 90.0162 65.0166C89.8178 65.2151 89.7061 65.4842 89.7059 65.7649V114.904C89.7061 115.184 89.8178 115.453 90.0162 115.652C90.2147 115.85 90.4838 115.962 90.7645 115.962H139.903C140.184 115.962 140.453 115.85 140.651 115.652C140.85 115.453 140.962 115.184 140.962 114.904V65.7649C140.962 65.4842 140.85 65.2151 140.651 65.0166C140.453 64.8181 140.184 64.7065 139.903 64.7062H90.7645Z" fill="#CCCCCC"/>
<path d="M150.731 154.175H75.3673V154.881H150.731V154.175Z" fill="#CCCCCC"/>
<path d="M77.7474 149.768C79.0618 149.768 80.1274 148.703 80.1274 147.388C80.1274 146.074 79.0618 145.008 77.7474 145.008C76.4329 145.008 75.3673 146.074 75.3673 147.388C75.3673 148.703 76.4329 149.768 77.7474 149.768Z" fill="#F25A45"/>
<path d="M150.731 177.974H75.3673V178.68H150.731V177.974Z" fill="#CCCCCC"/>
<path d="M77.7474 173.568C79.0618 173.568 80.1274 172.502 80.1274 171.188C80.1274 169.873 79.0618 168.808 77.7474 168.808C76.4329 168.808 75.3673 169.873 75.3673 171.188C75.3673 172.502 76.4329 173.568 77.7474 173.568Z" fill="#F25A45"/>
<path d="M149.352 205.076H125.535C125.124 205.075 124.729 204.912 124.438 204.621C124.147 204.33 123.984 203.935 123.983 203.524V195.176C123.984 194.765 124.147 194.37 124.438 194.079C124.729 193.789 125.124 193.625 125.535 193.624H149.352C149.763 193.625 150.158 193.789 150.449 194.079C150.74 194.37 150.903 194.765 150.904 195.176V203.524C150.903 203.935 150.74 204.33 150.449 204.621C150.158 204.912 149.763 205.075 149.352 205.076Z" fill="#F25A45"/>
<path d="M85.511 149.768C86.8254 149.768 87.891 148.703 87.891 147.388C87.891 146.074 86.8254 145.008 85.511 145.008C84.1965 145.008 83.1309 146.074 83.1309 147.388C83.1309 148.703 84.1965 149.768 85.511 149.768Z" fill="#F25A45"/>
<path d="M93.2745 149.768C94.589 149.768 95.6545 148.703 95.6545 147.388C95.6545 146.074 94.589 145.008 93.2745 145.008C91.9601 145.008 90.8945 146.074 90.8945 147.388C90.8945 148.703 91.9601 149.768 93.2745 149.768Z" fill="#F25A45"/>
<path d="M85.511 173.568C86.8254 173.568 87.891 172.502 87.891 171.188C87.891 169.873 86.8254 168.808 85.511 168.808C84.1965 168.808 83.1309 169.873 83.1309 171.188C83.1309 172.502 84.1965 173.568 85.511 173.568Z" fill="#F25A45"/>
<path d="M93.2745 173.568C94.589 173.568 95.6545 172.502 95.6545 171.188C95.6545 169.873 94.589 168.808 93.2745 168.808C91.9601 168.808 90.8945 169.873 90.8945 171.188C90.8945 172.502 91.9601 173.568 93.2745 173.568Z" fill="#F25A45"/>
<path d="M255.889 257.617H8.30357C7.77356 257.617 7.34424 257.428 7.34424 257.197C7.34424 256.965 7.77356 256.776 8.30357 256.776H255.889C256.418 256.776 256.848 256.965 256.848 257.197C256.848 257.429 256.418 257.617 255.889 257.617Z" fill="#3F3D56"/>
<path d="M194.719 168.782C194.888 168.86 195.051 168.95 195.205 169.054L210.672 162.453L211.224 158.378L217.404 158.341L217.039 167.685L196.625 173.084C196.582 173.225 196.53 173.365 196.471 173.5C196.175 174.13 195.701 174.659 195.106 175.019C194.512 175.38 193.824 175.558 193.129 175.529C192.434 175.5 191.763 175.267 191.2 174.858C190.638 174.449 190.208 173.883 189.966 173.231C189.724 172.579 189.68 171.87 189.84 171.193C189.999 170.516 190.355 169.901 190.863 169.426C191.371 168.951 192.008 168.636 192.694 168.522C193.38 168.407 194.084 168.498 194.719 168.782Z" fill="#FFB8B8"/>
<path d="M219.652 253.459H215.424L213.413 237.153L219.652 237.153L219.652 253.459Z" fill="#FFB8B8"/>
<path d="M212.404 252.251H220.557V257.385H207.271C207.271 256.023 207.812 254.718 208.774 253.755C209.737 252.792 211.043 252.251 212.404 252.251Z" fill="#2F2E41"/>
<path d="M236.093 252.265L231.886 252.679L228.286 236.649L234.495 236.037L236.093 252.265Z" fill="#FFB8B8"/>
<path d="M228.762 251.773L236.876 250.974L237.38 256.083L224.157 257.385C224.091 256.714 224.158 256.037 224.353 255.392C224.549 254.747 224.87 254.146 225.297 253.625C225.725 253.104 226.251 252.672 226.846 252.355C227.44 252.037 228.092 251.839 228.762 251.773Z" fill="#2F2E41"/>
<path d="M220.828 141.083C225.506 141.083 229.298 137.291 229.298 132.614C229.298 127.936 225.506 124.144 220.828 124.144C216.151 124.144 212.359 127.936 212.359 132.614C212.359 137.291 216.151 141.083 220.828 141.083Z" fill="#FFB8B8"/>
<path d="M214.479 250.162C214.116 250.163 213.764 250.035 213.485 249.802C213.207 249.569 213.02 249.245 212.957 248.887C210.769 236.74 203.616 197.022 203.445 195.922C203.441 195.897 203.439 195.871 203.44 195.845V192.884C203.439 192.776 203.473 192.671 203.536 192.583L204.481 191.26C204.526 191.196 204.585 191.144 204.653 191.106C204.721 191.069 204.797 191.048 204.875 191.044C210.262 190.792 227.904 190.052 228.757 191.116C229.613 192.187 229.31 195.429 229.241 196.068L229.244 196.135L237.171 246.824C237.233 247.228 237.133 247.641 236.893 247.972C236.653 248.303 236.293 248.527 235.89 248.594L230.939 249.41C230.57 249.469 230.193 249.394 229.875 249.198C229.556 249.003 229.319 248.699 229.206 248.344C227.675 243.451 222.541 226.992 220.761 220.624C220.75 220.583 220.725 220.548 220.69 220.525C220.655 220.502 220.613 220.493 220.571 220.499C220.53 220.505 220.492 220.525 220.465 220.557C220.437 220.589 220.423 220.63 220.423 220.671C220.512 226.742 220.727 242.232 220.801 247.581L220.809 248.157C220.812 248.547 220.669 248.925 220.408 249.214C220.147 249.504 219.786 249.685 219.398 249.722L214.624 250.155C214.576 250.16 214.527 250.162 214.479 250.162Z" fill="#2F2E41"/>
<path d="M215.453 144.413C213.975 145.292 213.091 146.907 212.583 148.55C211.644 151.591 211.078 154.736 210.899 157.915L210.363 167.433L203.723 192.664C209.478 197.533 212.797 196.427 220.544 192.444C228.291 188.461 229.176 193.772 229.176 193.772L230.725 172.303L232.938 148.843C232.441 148.245 231.879 147.704 231.262 147.231C229.216 145.641 226.836 144.535 224.301 143.998C221.766 143.46 219.142 143.505 216.626 144.129L215.453 144.413Z" fill="#F25A45"/>
<path d="M213.297 173.878C213.475 173.945 213.648 174.026 213.814 174.121L229.107 166.467L229.361 162.32L235.669 161.885L236.007 171.338L215.57 178.096C215.403 178.812 215.022 179.46 214.478 179.954C213.934 180.448 213.253 180.765 212.524 180.862C211.796 180.959 211.055 180.832 210.4 180.498C209.746 180.164 209.208 179.639 208.859 178.992C208.511 178.345 208.367 177.607 208.448 176.876C208.529 176.146 208.83 175.457 209.312 174.902C209.793 174.347 210.433 173.952 211.144 173.769C211.856 173.586 212.607 173.624 213.297 173.878Z" fill="#FFB8B8"/>
<path d="M232.827 148.951C236.59 150.279 237.253 164.666 237.253 164.666C232.826 162.231 227.514 166.215 227.514 166.215C227.514 166.215 226.408 162.453 225.08 157.583C224.679 156.214 224.631 154.765 224.94 153.372C225.25 151.979 225.907 150.686 226.85 149.615C226.85 149.615 229.065 147.622 232.827 148.951Z" fill="#F25A45"/>
<path d="M228.423 134.853C227.367 134.009 225.928 135.544 225.928 135.544L225.083 127.946C225.083 127.946 219.807 128.578 216.43 127.735C213.053 126.892 212.526 130.795 212.526 130.795C212.352 129.219 212.316 127.63 212.42 126.047C212.631 124.147 215.375 122.248 220.229 120.981C225.083 119.715 227.616 125.202 227.616 125.202C230.993 126.891 229.478 135.698 228.423 134.853Z" fill="#2F2E41"/>
</svg>
